<svg xmlns="http://www.w3.org/2000/svg" xmlns:xlink="http://www.w3.org/1999/xlink" width="500" zoomAndPan="magnify" viewBox="0 0 375 374.999991" height="500" preserveAspectRatio="xMidYMid meet" version="1.0"><defs><clipPath id="e5d3f654b3"><path d="M 81.101562 23.304688 L 291.15625 23.304688 L 291.15625 324 L 81.101562 324 Z M 81.101562 23.304688 " clip-rule="nonzero"/></clipPath><clipPath id="749a3796e2"><path d="M 123.242188 70.421875 L 255.246094 70.421875 L 255.246094 202.453125 L 123.242188 202.453125 Z M 123.242188 70.421875 " clip-rule="nonzero"/></clipPath><clipPath id="1400e2f839"><path d="M 189.246094 70.421875 C 152.792969 70.421875 123.242188 99.976562 123.242188 136.433594 C 123.242188 172.890625 152.792969 202.453125 189.246094 202.453125 C 225.695312 202.453125 255.246094 172.890625 255.246094 136.433594 C 255.246094 99.976562 225.695312 70.421875 189.246094 70.421875 Z M 189.246094 70.421875 " clip-rule="nonzero"/></clipPath><clipPath id="85bba4f431"><path d="M 29.71875 220 L 135 220 L 135 354 L 29.71875 354 Z M 29.71875 220 " clip-rule="nonzero"/></clipPath><clipPath id="df72f30ced"><path d="M 236 221 L 345.46875 221 L 345.46875 354 L 236 354 Z M 236 221 " clip-rule="nonzero"/></clipPath><clipPath id="1f803d6bfc"><path d="M 87.492188 241.929688 L 88.058594 241.929688 L 88.058594 242.316406 L 87.492188 242.316406 Z M 87.492188 241.929688 " clip-rule="nonzero"/></clipPath><clipPath id="e389ce3fcb"><path d="M 88.023438 242.160156 C 86.996094 242.574219 87.820312 241.957031 87.820312 241.957031 " clip-rule="nonzero"/></clipPath><clipPath id="51711c9019"><path d="M 78.597656 245.871094 L 80.542969 245.871094 L 80.542969 247.589844 L 78.597656 247.589844 Z M 78.597656 245.871094 " clip-rule="nonzero"/></clipPath><clipPath id="b228adecc0"><path d="M 80.511719 246.488281 C 79.683594 247.925781 78.863281 247.621094 78.65625 247.308594 C 78.554688 247.003906 78.65625 246.179688 78.96875 245.976562 C 79.171875 245.765625 80.300781 246.078125 80.300781 246.078125 " clip-rule="nonzero"/></clipPath><clipPath id="8a8b17f865"><path d="M 63.292969 13.554688 L 309.386719 13.554688 L 309.386719 259.691406 L 63.292969 259.691406 Z M 63.292969 13.554688 " clip-rule="nonzero"/></clipPath></defs><g clip-path="url(#e5d3f654b3)"><path fill="#a0abda" d="M 186.152344 23.308594 C 128.144531 23.308594 81.101562 70.367188 81.101562 128.378906 C 81.101562 207.183594 186.152344 323.507812 186.152344 323.507812 C 186.152344 323.507812 291.203125 207.183594 291.203125 128.378906 C 291.203125 70.367188 244.15625 23.308594 186.152344 23.308594 Z M 186.152344 165.902344 C 165.4375 165.902344 148.632812 149.09375 148.632812 128.378906 C 148.632812 107.667969 165.4375 90.851562 186.152344 90.851562 C 206.863281 90.851562 223.667969 107.667969 223.667969 128.378906 C 223.667969 149.09375 206.863281 165.902344 186.152344 165.902344 Z M 186.152344 165.902344 " fill-opacity="1" fill-rule="nonzero"/></g><g clip-path="url(#749a3796e2)"><g clip-path="url(#1400e2f839)"><path fill="#494848" d="M 123.242188 70.421875 L 255.246094 70.421875 L 255.246094 202.453125 L 123.242188 202.453125 Z M 123.242188 70.421875 " fill-opacity="1" fill-rule="nonzero"/></g></g><g clip-path="url(#85bba4f431)"><path stroke-linecap="butt" transform="matrix(0.658461, -0.791766, 0.791629, 0.658575, 37.93301, 328.602869)" fill="none" stroke-linejoin="miter" d="M -0.00178539 2.000673 L 109.135625 1.99642 " stroke="#596cbc" stroke-width="4" stroke-opacity="1" stroke-miterlimit="4"/></g><path stroke-linecap="butt" transform="matrix(1.029683, 0, 0, 1.029861, 37.925861, 328.53695)" fill="none" stroke-linejoin="miter" d="M -0.0000778099 1.997162 L 284.974514 1.997162 " stroke="#596cbc" stroke-width="4" stroke-opacity="1" stroke-miterlimit="4"/><g clip-path="url(#df72f30ced)"><path stroke-linecap="butt" transform="matrix(0.651417, 0.797574, -0.797436, 0.651529, 261.756842, 243.187366)" fill="none" stroke-linejoin="miter" d="M 0.0026118 1.999509 L 106.849701 2.00001 " stroke="#596cbc" stroke-width="4" stroke-opacity="1" stroke-miterlimit="4"/></g><path stroke-linecap="butt" transform="matrix(1.029578, 0.0147565, -0.014754, 1.029755, 108.443143, 241.126155)" fill="none" stroke-linejoin="miter" d="M 0.000440643 2.001775 L 14.732628 1.999296 " stroke="#596cbc" stroke-width="4" stroke-opacity="1" stroke-miterlimit="4"/><path stroke-linecap="butt" transform="matrix(1.029567, 0.0155114, -0.0155087, 1.029744, 248.261179, 243.316098)" fill="none" stroke-linejoin="miter" d="M -0.0035039 1.999484 L 13.935897 1.998148 " stroke="#596cbc" stroke-width="4" stroke-opacity="1" stroke-miterlimit="4"/><g clip-path="url(#1f803d6bfc)"><g clip-path="url(#e389ce3fcb)"><path fill="#ffffff" d="M 82.984375 237.835938 L 92.257812 237.835938 L 92.257812 246.796875 L 82.984375 246.796875 Z M 82.984375 237.835938 " fill-opacity="1" fill-rule="nonzero"/></g></g><g clip-path="url(#51711c9019)"><g clip-path="url(#b228adecc0)"><path fill="#ffffff" d="M 74.539062 241.855469 L 84.722656 241.855469 L 84.722656 251.84375 L 74.539062 251.84375 Z M 74.539062 241.855469 " fill-opacity="1" fill-rule="nonzero"/></g></g><path fill="#596cbc" d="M 276.34375 136.433594 C 276.34375 137.910156 276.3125 139.382812 276.238281 140.859375 C 276.167969 142.335938 276.054688 143.804688 275.910156 145.273438 C 275.765625 146.742188 275.589844 148.207031 275.367188 149.667969 C 275.152344 151.125 274.902344 152.578125 274.613281 154.027344 C 274.328125 155.476562 274 156.914062 273.640625 158.34375 C 273.289062 159.777344 272.890625 161.199219 272.460938 162.613281 C 272.03125 164.027344 271.570312 165.425781 271.074219 166.816406 C 270.578125 168.203125 270.046875 169.582031 269.480469 170.945312 C 268.917969 172.308594 268.320312 173.660156 267.6875 174.988281 C 267.054688 176.324219 266.394531 177.644531 265.699219 178.949219 C 265 180.246094 264.277344 181.53125 263.515625 182.800781 C 262.761719 184.066406 261.972656 185.308594 261.152344 186.539062 C 260.332031 187.761719 259.484375 188.96875 258.605469 190.152344 C 257.722656 191.339844 256.8125 192.503906 255.878906 193.644531 C 254.941406 194.789062 253.980469 195.902344 252.988281 196.996094 C 251.996094 198.089844 250.976562 199.160156 249.9375 200.199219 C 248.890625 201.246094 247.824219 202.265625 246.730469 203.25 C 245.636719 204.242188 244.519531 205.210938 243.378906 206.140625 C 242.242188 207.082031 241.078125 207.988281 239.890625 208.867188 C 238.707031 209.746094 237.5 210.59375 236.273438 211.414062 C 235.042969 212.234375 233.800781 213.023438 232.535156 213.785156 C 231.269531 214.542969 229.988281 215.273438 228.683594 215.96875 C 227.378906 216.660156 226.066406 217.328125 224.730469 217.960938 C 223.394531 218.585938 222.050781 219.1875 220.683594 219.75 C 219.320312 220.3125 217.949219 220.84375 216.558594 221.34375 C 215.164062 221.84375 213.765625 222.304688 212.355469 222.734375 C 210.941406 223.160156 209.523438 223.554688 208.089844 223.914062 C 206.660156 224.273438 205.214844 224.59375 203.769531 224.882812 C 202.324219 225.167969 200.871094 225.421875 199.40625 225.640625 C 197.949219 225.855469 196.484375 226.039062 195.015625 226.183594 C 193.550781 226.328125 192.078125 226.433594 190.601562 226.507812 C 189.132812 226.578125 187.65625 226.617188 186.175781 226.617188 C 184.703125 226.617188 183.226562 226.578125 181.753906 226.507812 C 180.285156 226.433594 178.808594 226.328125 177.34375 226.183594 C 175.875 226.039062 174.410156 225.855469 172.945312 225.640625 C 171.488281 225.421875 170.035156 225.167969 168.585938 224.882812 C 167.144531 224.59375 165.703125 224.273438 164.269531 223.914062 C 162.835938 223.554688 161.417969 223.160156 160.007812 222.734375 C 158.597656 222.304688 157.191406 221.84375 155.800781 221.34375 C 154.414062 220.84375 153.039062 220.3125 151.671875 219.75 C 150.308594 219.1875 148.964844 218.585938 147.628906 217.960938 C 146.292969 217.328125 144.980469 216.660156 143.675781 215.96875 C 142.371094 215.273438 141.089844 214.542969 139.824219 213.785156 C 138.558594 213.023438 137.316406 212.234375 136.085938 211.414062 C 134.859375 210.59375 133.652344 209.746094 132.46875 208.867188 C 131.28125 207.988281 130.117188 207.082031 128.980469 206.140625 C 127.839844 205.210938 126.722656 204.242188 125.628906 203.25 C 124.535156 202.265625 123.46875 201.246094 122.421875 200.199219 C 121.378906 199.160156 120.363281 198.089844 119.371094 196.996094 C 118.378906 195.902344 117.417969 194.789062 116.480469 193.644531 C 115.542969 192.503906 114.636719 191.339844 113.757812 190.152344 C 112.875 188.96875 112.03125 187.761719 111.207031 186.539062 C 110.386719 185.308594 109.601562 184.066406 108.84375 182.800781 C 108.082031 181.53125 107.359375 180.246094 106.660156 178.949219 C 105.964844 177.644531 105.300781 176.324219 104.671875 174.988281 C 104.039062 173.660156 103.441406 172.308594 102.875 170.945312 C 102.3125 169.582031 101.78125 168.203125 101.28125 166.816406 C 100.789062 165.425781 100.320312 164.027344 99.898438 162.613281 C 99.46875 161.199219 99.074219 159.777344 98.714844 158.34375 C 98.359375 156.914062 98.03125 155.476562 97.746094 154.027344 C 97.457031 152.578125 97.207031 151.125 96.992188 149.667969 C 96.773438 148.207031 96.59375 146.742188 96.449219 145.273438 C 96.304688 143.804688 96.191406 142.335938 96.121094 140.859375 C 96.046875 139.382812 96.015625 137.910156 96.015625 136.433594 C 96.015625 134.957031 96.046875 133.484375 96.121094 132.007812 C 96.191406 130.535156 96.304688 129.0625 96.449219 127.59375 C 96.59375 126.125 96.773438 124.660156 96.992188 123.203125 C 97.207031 121.742188 97.457031 120.289062 97.746094 118.839844 C 98.03125 117.390625 98.359375 115.953125 98.714844 114.523438 C 99.074219 113.089844 99.46875 111.667969 99.898438 110.253906 C 100.320312 108.84375 100.789062 107.441406 101.28125 106.054688 C 101.78125 104.664062 102.3125 103.285156 102.875 101.921875 C 103.441406 100.558594 104.039062 99.207031 104.671875 97.878906 C 105.300781 96.542969 105.964844 95.222656 106.660156 93.917969 C 107.359375 92.621094 108.082031 91.335938 108.84375 90.070312 C 109.601562 88.804688 110.386719 87.558594 111.207031 86.328125 C 112.03125 85.105469 112.875 83.898438 113.757812 82.714844 C 114.636719 81.53125 115.542969 80.367188 116.480469 79.222656 C 117.417969 78.082031 118.378906 76.964844 119.371094 75.871094 C 120.363281 74.777344 121.378906 73.707031 122.421875 72.667969 C 123.46875 71.621094 124.535156 70.601562 125.628906 69.617188 C 126.722656 68.625 127.839844 67.660156 128.980469 66.726562 C 130.117188 65.785156 131.28125 64.878906 132.46875 64 C 133.652344 63.121094 134.859375 62.273438 136.085938 61.453125 C 137.316406 60.632812 138.558594 59.84375 139.824219 59.082031 C 141.089844 58.324219 142.371094 57.597656 143.675781 56.898438 C 144.980469 56.207031 146.292969 55.542969 147.628906 54.910156 C 148.964844 54.28125 150.308594 53.679688 151.671875 53.117188 C 153.039062 52.554688 154.414062 52.023438 155.800781 51.523438 C 157.191406 51.023438 158.597656 50.5625 160.007812 50.132812 C 161.417969 49.707031 162.835938 49.3125 164.269531 48.953125 C 165.703125 48.59375 167.144531 48.273438 168.585938 47.984375 C 170.035156 47.699219 171.488281 47.449219 172.945312 47.226562 C 174.410156 47.011719 175.875 46.832031 177.34375 46.6875 C 178.808594 46.539062 180.285156 46.433594 181.753906 46.359375 C 183.226562 46.289062 184.703125 46.25 186.175781 46.25 C 187.65625 46.25 189.132812 46.289062 190.601562 46.359375 C 192.078125 46.433594 193.550781 46.539062 195.015625 46.6875 C 196.484375 46.832031 197.949219 47.011719 199.40625 47.226562 C 200.871094 47.449219 202.324219 47.699219 203.769531 47.984375 C 205.214844 48.273438 206.660156 48.59375 208.089844 48.953125 C 209.523438 49.3125 210.941406 49.707031 212.355469 50.132812 C 213.765625 50.5625 215.164062 51.023438 216.558594 51.523438 C 217.949219 52.023438 219.320312 52.554688 220.683594 53.117188 C 222.050781 53.679688 223.394531 54.28125 224.730469 54.910156 C 226.066406 55.542969 227.378906 56.207031 228.683594 56.898438 C 229.988281 57.597656 231.269531 58.324219 232.535156 59.082031 C 233.800781 59.84375 235.042969 60.632812 236.273438 61.453125 C 237.5 62.273438 238.707031 63.121094 239.890625 64 C 241.078125 64.878906 242.242188 65.785156 243.378906 66.726562 C 244.519531 67.660156 245.636719 68.625 246.730469 69.617188 C 247.824219 70.601562 248.890625 71.621094 249.9375 72.667969 C 250.976562 73.707031 251.996094 74.777344 252.988281 75.871094 C 253.980469 76.964844 254.941406 78.082031 255.878906 79.222656 C 256.8125 80.367188 257.722656 81.53125 258.605469 82.714844 C 259.484375 83.898438 260.332031 85.105469 261.152344 86.328125 C 261.972656 87.558594 262.761719 88.804688 263.515625 90.070312 C 264.277344 91.335938 265 92.621094 265.699219 93.917969 C 266.394531 95.222656 267.054688 96.542969 267.6875 97.878906 C 268.320312 99.207031 268.917969 100.558594 269.480469 101.921875 C 270.046875 103.285156 270.578125 104.664062 271.074219 106.054688 C 271.570312 107.441406 272.03125 108.84375 272.460938 110.253906 C 272.890625 111.667969 273.289062 113.089844 273.640625 114.523438 C 274 115.953125 274.328125 117.390625 274.613281 118.839844 C 274.902344 120.289062 275.152344 121.742188 275.367188 123.203125 C 275.589844 124.660156 275.765625 126.125 275.910156 127.59375 C 276.054688 129.0625 276.167969 130.535156 276.238281 132.007812 C 276.3125 133.484375 276.34375 134.957031 276.34375 136.433594 Z M 276.34375 136.433594 " fill-opacity="1" fill-rule="nonzero"/><g clip-path="url(#8a8b17f865)"><path fill="#ffffff" d="M 186.175781 259.320312 C 184.636719 259.320312 183.078125 259.289062 181.542969 259.234375 L 181.617188 257.28125 C 183.539062 257.355469 185.484375 257.378906 187.421875 257.363281 L 187.441406 259.316406 C 187.019531 259.320312 186.601562 259.320312 186.175781 259.320312 Z M 193.332031 259.109375 L 193.21875 257.164062 C 195.132812 257.054688 197.082031 256.902344 199 256.691406 L 199.210938 258.632812 C 197.257812 258.84375 195.285156 259.003906 193.332031 259.109375 Z M 175.660156 258.875 C 173.707031 258.707031 171.734375 258.492188 169.804688 258.238281 L 170.066406 256.304688 C 171.964844 256.558594 173.90625 256.773438 175.832031 256.933594 Z M 205.050781 257.878906 L 204.753906 255.953125 C 206.664062 255.65625 208.582031 255.3125 210.464844 254.925781 L 210.859375 256.839844 C 208.9375 257.226562 206.984375 257.578125 205.050781 257.878906 Z M 163.980469 257.320312 C 162.054688 256.964844 160.113281 256.558594 158.203125 256.117188 L 158.648438 254.214844 C 160.519531 254.652344 162.4375 255.050781 164.328125 255.394531 Z M 216.601562 255.523438 L 216.117188 253.628906 C 217.992188 253.152344 219.867188 252.621094 221.707031 252.0625 L 222.273438 253.921875 C 220.410156 254.496094 218.5 255.035156 216.601562 255.523438 Z M 152.5 254.644531 C 150.621094 254.105469 148.726562 253.515625 146.867188 252.894531 L 147.496094 251.042969 C 149.316406 251.660156 151.183594 252.238281 153.027344 252.765625 Z M 227.867188 252.0625 L 227.210938 250.226562 C 229.015625 249.578125 230.828125 248.875 232.605469 248.136719 L 233.355469 249.933594 C 231.546875 250.683594 229.699219 251.402344 227.867188 252.0625 Z M 141.316406 250.867188 C 139.488281 250.148438 137.652344 249.378906 135.867188 248.574219 L 136.671875 246.796875 C 138.425781 247.589844 140.226562 248.34375 142.03125 249.054688 Z M 238.722656 247.546875 L 237.890625 245.78125 C 239.625 244.960938 241.367188 244.082031 243.0625 243.175781 L 243.980469 244.894531 C 242.257812 245.8125 240.488281 246.703125 238.722656 247.546875 Z M 130.546875 246.027344 C 128.808594 245.144531 127.054688 244.199219 125.351562 243.222656 L 126.320312 241.527344 C 128 242.488281 129.722656 243.417969 131.433594 244.285156 Z M 249.105469 241.996094 L 248.109375 240.320312 C 249.761719 239.335938 251.410156 238.292969 253.003906 237.226562 L 254.089844 238.855469 C 252.464844 239.933594 250.785156 240.992188 249.105469 241.996094 Z M 120.292969 240.171875 C 118.648438 239.121094 117 238.015625 115.398438 236.882812 L 116.523438 235.289062 C 118.09375 236.398438 119.71875 237.496094 121.34375 238.523438 Z M 258.914062 235.476562 L 257.761719 233.90625 C 259.304688 232.769531 260.851562 231.574219 262.347656 230.355469 L 263.574219 231.867188 C 262.050781 233.113281 260.484375 234.324219 258.914062 235.476562 Z M 110.65625 233.371094 C 109.113281 232.164062 107.578125 230.90625 106.097656 229.632812 L 107.367188 228.152344 C 108.832031 229.398438 110.339844 230.640625 111.859375 231.832031 Z M 268.058594 228.046875 L 266.761719 226.59375 C 268.199219 225.3125 269.621094 223.976562 270.992188 222.625 L 272.359375 224.015625 C 270.964844 225.394531 269.515625 226.75 268.058594 228.046875 Z M 101.722656 225.683594 C 100.300781 224.335938 98.894531 222.9375 97.539062 221.527344 L 98.945312 220.175781 C 100.273438 221.570312 101.664062 222.941406 103.0625 224.265625 Z M 276.457031 219.78125 L 275.023438 218.464844 C 276.332031 217.046875 277.625 215.578125 278.859375 214.109375 L 280.351562 215.359375 C 279.09375 216.855469 277.792969 218.34375 276.457031 219.78125 Z M 93.558594 217.175781 C 92.273438 215.699219 91.007812 214.175781 89.792969 212.644531 L 91.324219 211.4375 C 92.519531 212.945312 93.769531 214.445312 95.027344 215.894531 Z M 284.035156 210.75 L 282.484375 209.570312 C 283.648438 208.042969 284.796875 206.460938 285.886719 204.867188 L 287.492188 205.972656 C 286.382812 207.585938 285.21875 209.1875 284.035156 210.75 Z M 86.25 207.941406 C 85.113281 206.351562 83.996094 204.710938 82.929688 203.0625 L 84.566406 202.007812 C 85.617188 203.625 86.710938 205.234375 87.832031 206.800781 Z M 290.722656 201.019531 L 289.066406 199.996094 C 290.085938 198.355469 291.070312 196.664062 292.003906 194.980469 L 293.710938 195.925781 C 292.761719 197.644531 291.753906 199.355469 290.722656 201.019531 Z M 79.855469 198.046875 C 78.871094 196.359375 77.921875 194.621094 77.027344 192.886719 L 78.753906 191.988281 C 79.636719 193.691406 80.574219 195.402344 81.542969 197.066406 Z M 296.445312 190.699219 L 294.695312 189.835938 C 295.550781 188.105469 296.375 186.328125 297.136719 184.5625 L 298.925781 185.339844 C 298.144531 187.132812 297.3125 188.941406 296.445312 190.699219 Z M 74.441406 187.601562 C 73.625 185.820312 72.84375 184 72.113281 182.191406 L 73.925781 181.464844 C 74.632812 183.246094 75.40625 185.03125 76.210938 186.777344 Z M 301.148438 179.863281 L 299.324219 179.179688 C 300.011719 177.371094 300.660156 175.527344 301.25 173.6875 L 303.105469 174.285156 C 302.5 176.148438 301.839844 178.023438 301.148438 179.863281 Z M 70.054688 176.667969 C 69.414062 174.824219 68.808594 172.929688 68.261719 171.050781 L 70.132812 170.5 C 70.675781 172.351562 71.269531 174.207031 71.898438 176.023438 Z M 304.777344 168.632812 L 302.894531 168.125 C 303.398438 166.269531 303.867188 164.375 304.28125 162.492188 L 306.1875 162.910156 C 305.765625 164.820312 305.292969 166.746094 304.777344 168.632812 Z M 66.738281 165.355469 C 66.285156 163.453125 65.867188 161.515625 65.496094 159.589844 L 67.410156 159.226562 C 67.769531 161.117188 68.183594 163.027344 68.632812 164.898438 Z M 307.304688 157.117188 L 305.382812 156.796875 C 305.707031 154.894531 305.984375 152.964844 306.214844 151.050781 L 308.152344 151.28125 C 307.921875 153.222656 307.636719 155.191406 307.304688 157.117188 Z M 64.53125 153.773438 C 64.257812 151.839844 64.03125 149.863281 63.847656 147.921875 L 65.789062 147.742188 C 65.96875 149.65625 66.191406 151.597656 66.460938 153.5 Z M 308.714844 145.414062 L 306.773438 145.277344 C 306.90625 143.351562 307.003906 141.402344 307.050781 139.480469 L 309.003906 139.527344 C 308.949219 141.480469 308.859375 143.460938 308.714844 145.414062 Z M 63.445312 142.039062 C 63.359375 140.179688 63.316406 138.289062 63.316406 136.433594 C 63.316406 134.46875 63.359375 132.492188 63.457031 130.539062 L 65.398438 130.636719 C 65.3125 132.550781 65.265625 134.503906 65.265625 136.433594 C 65.265625 138.269531 65.300781 140.117188 65.386719 141.949219 Z M 307.0625 133.675781 C 307.015625 131.75 306.929688 129.796875 306.796875 127.882812 L 308.742188 127.746094 C 308.882812 129.691406 308.96875 131.675781 309.011719 133.632812 Z M 65.8125 124.84375 L 63.875 124.65625 C 64.058594 122.707031 64.289062 120.734375 64.574219 118.804688 L 66.503906 119.078125 C 66.222656 120.984375 65.992188 122.925781 65.8125 124.84375 Z M 306.246094 122.101562 C 306.023438 120.179688 305.75 118.25 305.425781 116.355469 L 307.351562 116.035156 C 307.667969 117.957031 307.953125 119.925781 308.183594 121.871094 Z M 67.464844 113.363281 L 65.550781 112.992188 C 65.925781 111.066406 66.34375 109.132812 66.808594 107.234375 L 68.703125 107.695312 C 68.246094 109.5625 67.828125 111.46875 67.464844 113.363281 Z M 304.339844 110.660156 C 303.929688 108.777344 303.46875 106.878906 302.972656 105.019531 L 304.855469 104.511719 C 305.363281 106.40625 305.828125 108.332031 306.246094 110.246094 Z M 70.214844 102.089844 L 68.335938 101.542969 C 68.894531 99.664062 69.507812 97.777344 70.148438 95.925781 L 71.988281 96.570312 C 71.355469 98.382812 70.757812 100.242188 70.214844 102.089844 Z M 301.335938 99.457031 C 300.746094 97.621094 300.109375 95.78125 299.433594 93.972656 L 301.253906 93.292969 C 301.945312 95.125 302.597656 97 303.191406 98.859375 Z M 74.039062 91.125 L 72.230469 90.390625 C 72.972656 88.570312 73.753906 86.75 74.574219 84.972656 L 76.34375 85.789062 C 75.539062 87.542969 74.761719 89.332031 74.039062 91.125 Z M 297.265625 88.609375 C 296.503906 86.84375 295.695312 85.070312 294.847656 83.347656 L 296.605469 82.496094 C 297.457031 84.25 298.289062 86.039062 299.0625 87.84375 Z M 78.914062 80.574219 L 77.179688 79.671875 C 78.085938 77.9375 79.046875 76.199219 80.035156 74.507812 L 81.722656 75.488281 C 80.746094 77.152344 79.796875 78.863281 78.914062 80.574219 Z M 292.179688 78.203125 C 291.253906 76.515625 290.273438 74.835938 289.261719 73.195312 L 290.925781 72.167969 C 291.949219 73.835938 292.949219 75.546875 293.890625 77.257812 Z M 84.773438 70.550781 L 83.140625 69.480469 C 84.207031 67.839844 85.328125 66.199219 86.476562 64.617188 L 88.058594 65.753906 C 86.929688 67.320312 85.824219 68.925781 84.773438 70.550781 Z M 286.109375 68.335938 C 285.027344 66.746094 283.890625 65.160156 282.730469 63.625 L 284.285156 62.449219 C 285.464844 64.003906 286.621094 65.621094 287.722656 67.230469 Z M 91.5625 61.128906 L 90.042969 59.917969 C 91.257812 58.390625 92.535156 56.867188 93.828125 55.398438 L 95.292969 56.683594 C 94.019531 58.125 92.765625 59.628906 91.5625 61.128906 Z M 279.121094 59.082031 C 277.894531 57.601562 276.605469 56.132812 275.304688 54.710938 L 276.742188 53.394531 C 278.058594 54.839844 279.367188 56.328125 280.617188 57.832031 Z M 99.21875 52.402344 L 97.816406 51.050781 C 99.175781 49.648438 100.589844 48.253906 102.015625 46.917969 L 103.351562 48.335938 C 101.945312 49.652344 100.558594 51.023438 99.21875 52.402344 Z M 271.28125 50.527344 C 269.917969 49.175781 268.503906 47.832031 267.066406 46.539062 L 268.371094 45.09375 C 269.828125 46.40625 271.269531 47.765625 272.65625 49.140625 Z M 107.667969 44.460938 L 106.402344 42.972656 C 107.894531 41.703125 109.429688 40.449219 110.972656 39.25 L 112.167969 40.796875 C 110.652344 41.976562 109.132812 43.203125 107.667969 44.460938 Z M 262.664062 42.765625 C 261.171875 41.542969 259.632812 40.34375 258.082031 39.191406 L 259.242188 37.625 C 260.820312 38.789062 262.382812 40.007812 263.898438 41.246094 Z M 116.828125 37.359375 L 115.707031 35.757812 C 117.3125 34.636719 118.957031 33.539062 120.609375 32.488281 L 121.652344 34.132812 C 120.03125 35.167969 118.410156 36.246094 116.828125 37.359375 Z M 253.332031 35.851562 C 251.726562 34.777344 250.078125 33.730469 248.425781 32.738281 L 249.433594 31.066406 C 251.113281 32.074219 252.785156 33.140625 254.414062 34.234375 Z M 126.628906 31.164062 L 125.660156 29.46875 C 127.363281 28.503906 129.109375 27.5625 130.851562 26.683594 L 131.734375 28.421875 C 130.015625 29.296875 128.296875 30.214844 126.628906 31.164062 Z M 243.382812 29.863281 C 241.6875 28.953125 239.945312 28.066406 238.203125 27.238281 L 239.046875 25.476562 C 240.816406 26.320312 242.589844 27.21875 244.304688 28.148438 Z M 136.960938 25.945312 L 136.164062 24.164062 C 137.949219 23.367188 139.773438 22.601562 141.589844 21.898438 L 142.296875 23.71875 C 140.511719 24.410156 138.714844 25.15625 136.960938 25.945312 Z M 232.898438 24.859375 C 231.117188 24.113281 229.296875 23.402344 227.484375 22.742188 L 228.148438 20.90625 C 229.992188 21.578125 231.84375 22.308594 233.65625 23.0625 Z M 147.757812 21.734375 L 147.140625 19.886719 C 148.996094 19.261719 150.894531 18.679688 152.773438 18.148438 L 153.300781 20.027344 C 151.445312 20.546875 149.585938 21.128906 147.757812 21.734375 Z M 221.96875 20.890625 C 220.128906 20.316406 218.253906 19.785156 216.386719 19.308594 L 216.875 17.421875 C 218.769531 17.902344 220.675781 18.445312 222.546875 19.023438 Z M 158.917969 18.589844 L 158.484375 16.6875 C 160.386719 16.25 162.328125 15.847656 164.253906 15.5 L 164.601562 17.425781 C 162.710938 17.765625 160.792969 18.15625 158.917969 18.589844 Z M 210.738281 18 C 208.855469 17.609375 206.933594 17.257812 205.027344 16.960938 L 205.328125 15.035156 C 207.265625 15.339844 209.214844 15.695312 211.125 16.085938 Z M 170.335938 16.53125 L 170.078125 14.597656 C 172.015625 14.339844 173.988281 14.136719 175.945312 13.972656 L 176.105469 15.914062 C 174.1875 16.074219 172.246094 16.277344 170.335938 16.53125 Z M 199.277344 16.199219 C 197.363281 15.992188 195.417969 15.832031 193.496094 15.71875 L 193.617188 13.773438 C 195.574219 13.890625 197.546875 14.050781 199.488281 14.261719 Z M 181.890625 15.574219 L 181.828125 13.621094 C 183.269531 13.574219 184.757812 13.554688 186.175781 13.554688 C 186.699219 13.554688 187.210938 13.554688 187.722656 13.558594 L 187.699219 15.511719 C 187.1875 15.503906 186.671875 15.5 186.160156 15.5 C 184.746094 15.5 183.308594 15.527344 181.890625 15.574219 Z M 181.890625 15.574219 " fill-opacity="1" fill-rule="nonzero"/></g><path fill="#596cbc" d="M 264.003906 30.289062 L 274.699219 40.984375 L 261.414062 54.269531 L 250.71875 43.574219 Z M 264.003906 30.289062 " fill-opacity="1" fill-rule="nonzero"/><path fill="#596cbc" d="M 274.691406 40.984375 L 264.003906 30.292969 L 269.3125 29.945312 L 275.042969 35.671875 Z M 274.691406 40.984375 " fill-opacity="1" fill-rule="nonzero"/><path fill="#ffffff" d="M 263.65625 30.636719 L 264.347656 29.949219 L 275.035156 40.644531 L 274.347656 41.332031 Z M 263.65625 30.636719 " fill-opacity="1" fill-rule="nonzero"/><path fill="#596cbc" d="M 276.214844 45.761719 L 289.160156 58.710938 L 279.144531 68.730469 L 266.199219 55.789062 Z M 276.214844 45.761719 " fill-opacity="1" fill-rule="nonzero"/><path fill="#596cbc" d="M 257.023438 62.964844 C 258.902344 58.726562 258.117188 53.59375 254.644531 50.117188 C 251.171875 46.644531 246.039062 45.863281 241.800781 47.742188 Z M 257.023438 62.964844 " fill-opacity="1" fill-rule="nonzero"/><path fill="#ffffff" d="M 246.050781 57.957031 L 249.03125 54.96875 L 249.792969 55.730469 L 246.8125 58.71875 Z M 246.050781 57.957031 " fill-opacity="1" fill-rule="nonzero"/><path fill="#ffffff" d="M 253.882812 49.363281 L 255.191406 48.054688 L 256.714844 49.570312 L 255.402344 50.878906 Z M 253.882812 49.363281 " fill-opacity="1" fill-rule="nonzero"/><path fill="#ffffff" d="M 267.054688 48.628906 L 269.054688 46.632812 L 272.203125 49.78125 L 270.210938 51.78125 Z M 267.054688 48.628906 " fill-opacity="1" fill-rule="nonzero"/><path fill="#ffffff" d="M 272.320312 61.914062 L 282.339844 51.894531 L 283.03125 52.582031 L 273.015625 62.605469 Z M 272.320312 61.914062 " fill-opacity="1" fill-rule="nonzero"/><path fill="#ffffff" d="M 269.125 52.859375 L 269.8125 52.171875 L 282.757812 65.121094 L 282.070312 65.808594 Z M 269.125 52.859375 " fill-opacity="1" fill-rule="nonzero"/><path fill="#ffffff" d="M 272.605469 49.375 L 273.296875 48.6875 L 286.246094 61.636719 L 285.550781 62.320312 Z M 272.605469 49.375 " fill-opacity="1" fill-rule="nonzero"/><path fill="#ffffff" d="M 269.046875 58.636719 L 279.0625 48.617188 L 279.75 49.304688 L 269.730469 59.324219 Z M 269.046875 58.636719 " fill-opacity="1" fill-rule="nonzero"/><path fill="#ffffff" d="M 275.597656 65.195312 L 285.617188 55.171875 L 286.308594 55.863281 L 276.289062 65.882812 Z M 275.597656 65.195312 " fill-opacity="1" fill-rule="nonzero"/><path fill="#596cbc" d="M 249.203125 38.789062 L 236.261719 25.847656 L 246.28125 15.828125 L 259.21875 28.769531 Z M 249.203125 38.789062 " fill-opacity="1" fill-rule="nonzero"/><path fill="#ffffff" d="M 253.214844 34.777344 L 255.214844 32.78125 L 258.363281 35.929688 L 256.367188 37.933594 Z M 253.214844 34.777344 " fill-opacity="1" fill-rule="nonzero"/><path fill="#ffffff" d="M 242.386719 31.972656 L 252.402344 21.953125 L 253.089844 22.640625 L 243.074219 32.660156 Z M 242.386719 31.972656 " fill-opacity="1" fill-rule="nonzero"/><path fill="#ffffff" d="M 239.191406 22.917969 L 239.875 22.230469 L 252.824219 35.175781 L 252.128906 35.867188 Z M 239.191406 22.917969 " fill-opacity="1" fill-rule="nonzero"/><path fill="#ffffff" d="M 242.671875 19.433594 L 243.355469 18.746094 L 256.304688 31.6875 L 255.617188 32.378906 Z M 242.671875 19.433594 " fill-opacity="1" fill-rule="nonzero"/><path fill="#ffffff" d="M 245.664062 35.253906 L 255.679688 25.234375 L 256.367188 25.925781 L 246.355469 35.941406 Z M 245.664062 35.253906 " fill-opacity="1" fill-rule="nonzero"/><path fill="#ffffff" d="M 239.105469 28.695312 L 249.121094 18.675781 L 249.808594 19.363281 L 239.796875 29.382812 Z M 239.105469 28.695312 " fill-opacity="1" fill-rule="nonzero"/><path fill="#596cbc" d="M 248.066406 58.335938 C 248.066406 58.550781 248.023438 58.761719 247.9375 58.957031 C 247.855469 59.15625 247.738281 59.332031 247.582031 59.488281 C 247.433594 59.640625 247.253906 59.757812 247.058594 59.84375 C 246.855469 59.921875 246.648438 59.964844 246.429688 59.964844 C 246.214844 59.964844 246.007812 59.921875 245.808594 59.84375 C 245.609375 59.757812 245.433594 59.640625 245.277344 59.488281 C 245.125 59.332031 245.007812 59.15625 244.921875 58.957031 C 244.84375 58.761719 244.800781 58.550781 244.800781 58.335938 C 244.800781 58.117188 244.84375 57.90625 244.921875 57.707031 C 245.007812 57.511719 245.125 57.332031 245.277344 57.183594 C 245.433594 57.027344 245.609375 56.910156 245.808594 56.828125 C 246.007812 56.742188 246.214844 56.699219 246.429688 56.699219 C 246.648438 56.699219 246.855469 56.742188 247.058594 56.828125 C 247.253906 56.910156 247.433594 57.027344 247.582031 57.183594 C 247.738281 57.332031 247.855469 57.511719 247.9375 57.707031 C 248.023438 57.90625 248.066406 58.117188 248.066406 58.335938 Z M 248.066406 58.335938 " fill-opacity="1" fill-rule="nonzero"/><path fill="#ffffff" d="M 132.714844 61.71875 C 134.4375 67.734375 130.238281 75.46875 121.222656 81.050781 C 112.199219 86.636719 110.914062 104.675781 110.914062 113.703125 C 110.914062 122.722656 134.53125 150.214844 138.828125 141.191406 C 143.125 132.175781 135.820312 131.3125 133.675781 125.296875 C 131.523438 119.289062 130.664062 110.699219 137.535156 112.84375 C 144.40625 114.996094 143.976562 130.980469 149.566406 120.621094 C 155.148438 110.261719 158.578125 101.316406 158.578125 101.316406 C 158.578125 101.316406 166.738281 96.09375 174.898438 93.511719 C 183.0625 90.9375 180.480469 90.078125 178.765625 82.773438 C 177.042969 75.46875 175.757812 69.457031 171.894531 72.035156 C 168.027344 74.609375 167.171875 81.050781 161.589844 79.765625 C 156.003906 78.476562 155.578125 67.308594 161.160156 67.308594 C 166.742188 67.308594 173.1875 69.03125 172.753906 64.734375 C 172.320312 60.4375 168.894531 59.152344 162.875 56.578125 C 156.859375 53.996094 155.296875 50.878906 155.296875 50.878906 Z M 132.714844 61.71875 " fill-opacity="1" fill-rule="nonzero"/><path fill="#ffffff" d="M 188.214844 52.28125 C 178.464844 50.472656 178.046875 57.863281 180.550781 61.296875 C 183.0625 64.734375 174.074219 72.464844 183.722656 73.75 C 193.367188 75.039062 199.808594 54.421875 188.214844 52.28125 Z M 188.214844 52.28125 " fill-opacity="1" fill-rule="nonzero"/><path fill="#ffffff" d="M 215.921875 50.027344 C 210.765625 56.753906 215.269531 62.15625 216.128906 66.453125 C 216.980469 70.746094 210.976562 78.042969 217.851562 81.488281 C 224.726562 84.925781 231.589844 82.34375 229.015625 87.070312 C 226.4375 91.789062 225.578125 99.097656 231.589844 97.808594 C 237.601562 96.519531 233.734375 84.496094 238.894531 85.355469 C 244.046875 86.210938 249.195312 90.078125 251.777344 87.5 C 254.355469 84.925781 255.214844 77.625 255.214844 77.625 C 255.214844 77.625 244.699219 62.632812 215.921875 50.027344 Z M 215.921875 50.027344 " fill-opacity="1" fill-rule="nonzero"/><path fill="#ffffff" d="M 151.28125 138.183594 C 144.96875 140.476562 154.289062 142.050781 148.707031 149.777344 C 143.125 157.507812 138.046875 164.8125 145.734375 175.550781 C 153.429688 186.289062 159.015625 182.421875 158.585938 189.722656 C 158.15625 197.03125 158.585938 217.644531 165.890625 215.929688 C 173.1875 214.214844 175.65625 205.1875 179.148438 204.765625 C 182.636719 204.335938 181.929688 207.339844 186.792969 202.183594 C 191.660156 197.03125 187.777344 193.167969 194.441406 192.734375 C 201.101562 192.304688 203.6875 193.597656 204.539062 188.011719 C 205.398438 182.429688 202.820312 181.667969 208.402344 177.109375 C 213.984375 172.546875 209.6875 166.535156 208.402344 162.667969 C 207.113281 158.800781 203.230469 162.667969 194.4375 159.660156 C 185.640625 156.648438 188.332031 154.074219 185.265625 149.777344 C 182.203125 145.484375 181.34375 148.921875 174.476562 145.917969 C 167.605469 142.90625 166.742188 141.621094 163.308594 138.183594 C 159.871094 134.75 156.003906 136.464844 151.28125 138.183594 Z M 151.28125 138.183594 " fill-opacity="1" fill-rule="nonzero"/></svg>