<svg xmlns="http://www.w3.org/2000/svg" xmlns:xlink="http://www.w3.org/1999/xlink" width="1080" zoomAndPan="magnify" viewBox="0 0 810 809.999993" height="1080" preserveAspectRatio="xMidYMid meet" version="1.0"><defs><clipPath id="9be1bd0fc4"><path d="M 347.589844 317.699219 L 426.957031 317.699219 L 426.957031 431.253906 L 347.589844 431.253906 Z M 347.589844 317.699219 " clip-rule="nonzero"/></clipPath><clipPath id="67e1a16dc0"><path d="M 363.511719 335.492188 L 413.390625 335.492188 L 413.390625 385.347656 L 363.511719 385.347656 Z M 363.511719 335.492188 " clip-rule="nonzero"/></clipPath><clipPath id="565007d8da"><path d="M 388.449219 335.492188 C 374.679688 335.492188 363.511719 346.652344 363.511719 360.417969 C 363.511719 374.1875 374.679688 385.347656 388.449219 385.347656 C 402.222656 385.347656 413.390625 374.1875 413.390625 360.417969 C 413.390625 346.652344 402.222656 335.492188 388.449219 335.492188 Z M 388.449219 335.492188 " clip-rule="nonzero"/></clipPath><clipPath id="13fb9a0c8f"><path d="M 350.003906 400.257812 L 350.21875 400.257812 L 350.21875 400.402344 L 350.003906 400.402344 Z M 350.003906 400.257812 " clip-rule="nonzero"/></clipPath><clipPath id="9963ec3d49"><path d="M 350.207031 400.34375 C 349.816406 400.5 350.128906 400.265625 350.128906 400.265625 " clip-rule="nonzero"/></clipPath><clipPath id="83dd96b0cd"><path d="M 346.644531 401.746094 L 347.378906 401.746094 L 347.378906 402.394531 L 346.644531 402.394531 Z M 346.644531 401.746094 " clip-rule="nonzero"/></clipPath><clipPath id="3c53663495"><path d="M 347.367188 401.976562 C 347.054688 402.519531 346.746094 402.40625 346.664062 402.289062 C 346.628906 402.171875 346.664062 401.859375 346.78125 401.78125 C 346.859375 401.703125 347.289062 401.820312 347.289062 401.820312 " clip-rule="nonzero"/></clipPath><clipPath id="af14ca4cb9"><path d="M 340.859375 314.019531 L 433.84375 314.019531 L 433.84375 406.960938 L 340.859375 406.960938 Z M 340.859375 314.019531 " clip-rule="nonzero"/></clipPath></defs><g clip-path="url(#9be1bd0fc4)"><path fill="#a0abda" d="M 387.28125 317.703125 C 365.363281 317.703125 347.589844 335.472656 347.589844 357.375 C 347.589844 387.136719 387.28125 431.0625 387.28125 431.0625 C 387.28125 431.0625 426.976562 387.136719 426.976562 357.375 C 426.976562 335.472656 409.199219 317.703125 387.28125 317.703125 Z M 387.28125 371.546875 C 379.457031 371.546875 373.105469 365.199219 373.105469 357.375 C 373.105469 349.554688 379.457031 343.207031 387.28125 343.207031 C 395.109375 343.207031 401.457031 349.554688 401.457031 357.375 C 401.457031 365.199219 395.109375 371.546875 387.28125 371.546875 Z M 387.28125 371.546875 " fill-opacity="1" fill-rule="nonzero"/></g><g clip-path="url(#67e1a16dc0)"><g clip-path="url(#565007d8da)"><path fill="#494848" d="M 363.511719 335.492188 L 413.390625 335.492188 L 413.390625 385.347656 L 363.511719 385.347656 Z M 363.511719 335.492188 " fill-opacity="1" fill-rule="nonzero"/></g></g><path stroke-linecap="butt" transform="matrix(0.248796, -0.298981, 0.299112, 0.248686, 331.278589, 432.984646)" fill="none" stroke-linejoin="miter" d="M -0.00763952 2.000289 L 109.134358 1.994557 " stroke="#596cbc" stroke-width="4" stroke-opacity="1" stroke-miterlimit="4"/><path stroke-linecap="butt" transform="matrix(0.38906, 0, 0, 0.388889, 331.275894, 432.959758)" fill="none" stroke-linejoin="miter" d="M 0.0037262 2.001916 L 284.97557 2.001916 " stroke="#596cbc" stroke-width="4" stroke-opacity="1" stroke-miterlimit="4"/><path stroke-linecap="butt" transform="matrix(0.246134, 0.301174, -0.301307, 0.246026, 415.849087, 400.730625)" fill="none" stroke-linejoin="miter" d="M -0.000658775 2.000722 L 106.850041 1.996735 " stroke="#596cbc" stroke-width="4" stroke-opacity="1" stroke-miterlimit="4"/><path stroke-linecap="butt" transform="matrix(0.38902, 0.00557226, -0.00557471, 0.388849, 357.920405, 399.952325)" fill="none" stroke-linejoin="miter" d="M 0.00233196 2.001114 L 14.73286 2.000983 " stroke="#596cbc" stroke-width="4" stroke-opacity="1" stroke-miterlimit="4"/><path stroke-linecap="butt" transform="matrix(0.389016, 0.0058573, -0.00585987, 0.388845, 410.749879, 400.779257)" fill="none" stroke-linejoin="miter" d="M 0.000377763 2.004232 L 13.937663 1.995205 " stroke="#596cbc" stroke-width="4" stroke-opacity="1" stroke-miterlimit="4"/><g clip-path="url(#13fb9a0c8f)"><g clip-path="url(#9963ec3d49)"><path fill="#ffffff" d="M 348.300781 398.710938 L 351.804688 398.710938 L 351.804688 402.09375 L 348.300781 402.09375 Z M 348.300781 398.710938 " fill-opacity="1" fill-rule="nonzero"/></g></g><g clip-path="url(#83dd96b0cd)"><g clip-path="url(#3c53663495)"><path fill="#ffffff" d="M 345.109375 400.226562 L 348.957031 400.226562 L 348.957031 404 L 345.109375 404 Z M 345.109375 400.226562 " fill-opacity="1" fill-rule="nonzero"/></g></g><path fill="#596cbc" d="M 421.359375 360.417969 C 421.359375 360.976562 421.347656 361.53125 421.320312 362.089844 C 421.292969 362.648438 421.25 363.203125 421.195312 363.757812 C 421.140625 364.3125 421.074219 364.863281 420.992188 365.414062 C 420.910156 365.96875 420.816406 366.515625 420.707031 367.0625 C 420.597656 367.609375 420.476562 368.152344 420.339844 368.691406 C 420.207031 369.234375 420.054688 369.769531 419.894531 370.304688 C 419.730469 370.839844 419.558594 371.367188 419.367188 371.890625 C 419.183594 372.414062 418.980469 372.9375 418.765625 373.449219 C 418.554688 373.964844 418.328125 374.476562 418.089844 374.976562 C 417.851562 375.484375 417.601562 375.980469 417.339844 376.472656 C 417.074219 376.964844 416.800781 377.449219 416.515625 377.925781 C 416.226562 378.40625 415.929688 378.875 415.621094 379.339844 C 415.308594 379.800781 414.988281 380.257812 414.65625 380.703125 C 414.324219 381.152344 413.980469 381.589844 413.628906 382.023438 C 413.273438 382.453125 412.910156 382.875 412.535156 383.289062 C 412.160156 383.703125 411.777344 384.105469 411.382812 384.496094 C 410.988281 384.894531 410.585938 385.277344 410.171875 385.648438 C 409.757812 386.023438 409.335938 386.390625 408.90625 386.742188 C 408.476562 387.097656 408.035156 387.4375 407.585938 387.769531 C 407.140625 388.101562 406.683594 388.421875 406.21875 388.734375 C 405.757812 389.042969 405.285156 389.339844 404.808594 389.628906 C 404.328125 389.914062 403.84375 390.1875 403.351562 390.453125 C 402.859375 390.714844 402.363281 390.964844 401.859375 391.203125 C 401.355469 391.441406 400.847656 391.667969 400.328125 391.878906 C 399.816406 392.09375 399.296875 392.292969 398.769531 392.480469 C 398.246094 392.671875 397.714844 392.84375 397.183594 393.007812 C 396.648438 393.167969 396.113281 393.316406 395.570312 393.453125 C 395.03125 393.589844 394.484375 393.710938 393.9375 393.820312 C 393.394531 393.925781 392.84375 394.023438 392.289062 394.105469 C 391.738281 394.1875 391.1875 394.253906 390.632812 394.308594 C 390.078125 394.363281 389.519531 394.40625 388.964844 394.433594 C 388.410156 394.460938 387.851562 394.472656 387.292969 394.472656 C 386.734375 394.472656 386.175781 394.460938 385.621094 394.433594 C 385.066406 394.40625 384.507812 394.363281 383.953125 394.308594 C 383.398438 394.253906 382.847656 394.1875 382.292969 394.105469 C 381.742188 394.023438 381.191406 393.925781 380.644531 393.820312 C 380.101562 393.710938 379.554688 393.589844 379.015625 393.453125 C 378.472656 393.316406 377.9375 393.167969 377.402344 393.007812 C 376.871094 392.84375 376.339844 392.671875 375.816406 392.480469 C 375.289062 392.292969 374.769531 392.09375 374.253906 391.878906 C 373.738281 391.667969 373.230469 391.441406 372.726562 391.203125 C 372.222656 390.964844 371.726562 390.714844 371.234375 390.453125 C 370.742188 390.1875 370.257812 389.914062 369.777344 389.628906 C 369.300781 389.339844 368.828125 389.042969 368.367188 388.734375 C 367.902344 388.421875 367.445312 388.101562 366.996094 387.769531 C 366.550781 387.4375 366.109375 387.097656 365.679688 386.742188 C 365.25 386.390625 364.828125 386.023438 364.414062 385.648438 C 364 385.277344 363.597656 384.894531 363.203125 384.496094 C 362.808594 384.105469 362.425781 383.703125 362.050781 383.289062 C 361.675781 382.875 361.3125 382.453125 360.957031 382.023438 C 360.601562 381.589844 360.261719 381.152344 359.929688 380.703125 C 359.59375 380.257812 359.277344 379.800781 358.964844 379.339844 C 358.65625 378.875 358.359375 378.40625 358.070312 377.925781 C 357.785156 377.449219 357.511719 376.964844 357.246094 376.472656 C 356.984375 375.980469 356.730469 375.484375 356.496094 374.976562 C 356.257812 374.476562 356.03125 373.964844 355.816406 373.449219 C 355.605469 372.9375 355.402344 372.414062 355.214844 371.890625 C 355.027344 371.367188 354.851562 370.839844 354.691406 370.304688 C 354.53125 369.769531 354.378906 369.234375 354.242188 368.691406 C 354.109375 368.152344 353.988281 367.609375 353.878906 367.0625 C 353.769531 366.515625 353.675781 365.96875 353.59375 365.414062 C 353.511719 364.863281 353.445312 364.3125 353.390625 363.757812 C 353.335938 363.203125 353.292969 362.648438 353.265625 362.089844 C 353.238281 361.53125 353.226562 360.976562 353.226562 360.417969 C 353.226562 359.863281 353.238281 359.304688 353.265625 358.75 C 353.292969 358.191406 353.335938 357.636719 353.390625 357.082031 C 353.445312 356.527344 353.511719 355.972656 353.59375 355.421875 C 353.675781 354.871094 353.769531 354.324219 353.878906 353.777344 C 353.988281 353.230469 354.109375 352.6875 354.242188 352.144531 C 354.378906 351.605469 354.53125 351.066406 354.691406 350.53125 C 354.851562 350 355.027344 349.472656 355.214844 348.945312 C 355.402344 348.421875 355.605469 347.902344 355.816406 347.386719 C 356.03125 346.871094 356.257812 346.363281 356.496094 345.859375 C 356.730469 345.355469 356.984375 344.859375 357.246094 344.367188 C 357.511719 343.875 357.785156 343.390625 358.070312 342.910156 C 358.359375 342.433594 358.65625 341.964844 358.964844 341.5 C 359.277344 341.039062 359.59375 340.582031 359.929688 340.132812 C 360.261719 339.6875 360.601562 339.246094 360.957031 338.816406 C 361.3125 338.382812 361.675781 337.960938 362.050781 337.550781 C 362.425781 337.136719 362.808594 336.734375 363.203125 336.339844 C 363.597656 335.945312 364 335.5625 364.414062 335.1875 C 364.828125 334.8125 365.25 334.449219 365.679688 334.097656 C 366.109375 333.742188 366.550781 333.398438 366.996094 333.066406 C 367.445312 332.734375 367.902344 332.414062 368.367188 332.105469 C 368.828125 331.796875 369.300781 331.496094 369.777344 331.210938 C 370.257812 330.925781 370.742188 330.648438 371.234375 330.386719 C 371.726562 330.125 372.222656 329.875 372.726562 329.632812 C 373.230469 329.398438 373.738281 329.171875 374.253906 328.957031 C 374.769531 328.746094 375.289062 328.542969 375.816406 328.355469 C 376.339844 328.167969 376.871094 327.992188 377.402344 327.832031 C 377.9375 327.667969 378.472656 327.523438 379.015625 327.386719 C 379.554688 327.25 380.101562 327.128906 380.644531 327.019531 C 381.191406 326.910156 381.742188 326.816406 382.292969 326.734375 C 382.847656 326.652344 383.398438 326.582031 383.953125 326.527344 C 384.507812 326.472656 385.066406 326.433594 385.621094 326.40625 C 386.175781 326.378906 386.734375 326.363281 387.292969 326.363281 C 387.851562 326.363281 388.410156 326.378906 388.964844 326.40625 C 389.519531 326.433594 390.078125 326.472656 390.632812 326.527344 C 391.1875 326.582031 391.738281 326.652344 392.289062 326.734375 C 392.84375 326.816406 393.394531 326.910156 393.9375 327.019531 C 394.484375 327.128906 395.03125 327.25 395.570312 327.386719 C 396.113281 327.523438 396.648438 327.667969 397.183594 327.832031 C 397.714844 327.992188 398.246094 328.167969 398.769531 328.355469 C 399.296875 328.542969 399.816406 328.746094 400.328125 328.957031 C 400.847656 329.171875 401.355469 329.398438 401.859375 329.632812 C 402.363281 329.875 402.859375 330.125 403.351562 330.386719 C 403.84375 330.648438 404.328125 330.925781 404.808594 331.210938 C 405.285156 331.496094 405.757812 331.796875 406.21875 332.105469 C 406.683594 332.414062 407.140625 332.734375 407.585938 333.066406 C 408.035156 333.398438 408.476562 333.742188 408.90625 334.097656 C 409.335938 334.449219 409.757812 334.8125 410.171875 335.1875 C 410.585938 335.5625 410.988281 335.945312 411.382812 336.339844 C 411.777344 336.734375 412.160156 337.136719 412.535156 337.550781 C 412.910156 337.960938 413.273438 338.382812 413.628906 338.816406 C 413.980469 339.246094 414.324219 339.6875 414.65625 340.132812 C 414.988281 340.582031 415.308594 341.039062 415.621094 341.5 C 415.929688 341.964844 416.226562 342.433594 416.515625 342.910156 C 416.800781 343.390625 417.074219 343.875 417.339844 344.367188 C 417.601562 344.859375 417.851562 345.355469 418.089844 345.859375 C 418.328125 346.363281 418.554688 346.871094 418.765625 347.386719 C 418.980469 347.902344 419.183594 348.421875 419.367188 348.945312 C 419.558594 349.472656 419.730469 350 419.894531 350.53125 C 420.054688 351.066406 420.207031 351.605469 420.339844 352.144531 C 420.476562 352.6875 420.597656 353.230469 420.707031 353.777344 C 420.816406 354.324219 420.910156 354.871094 420.992188 355.421875 C 421.074219 355.972656 421.140625 356.527344 421.195312 357.082031 C 421.25 357.636719 421.292969 358.191406 421.320312 358.75 C 421.347656 359.304688 421.359375 359.863281 421.359375 360.417969 Z M 421.359375 360.417969 " fill-opacity="1" fill-rule="nonzero"/><g clip-path="url(#af14ca4cb9)"><path fill="#ffffff" d="M 387.292969 406.824219 C 386.710938 406.824219 386.121094 406.808594 385.542969 406.789062 L 385.570312 406.054688 C 386.292969 406.082031 387.03125 406.089844 387.761719 406.082031 L 387.769531 406.820312 C 387.609375 406.824219 387.453125 406.824219 387.292969 406.824219 Z M 389.996094 406.742188 L 389.953125 406.007812 C 390.675781 405.96875 391.410156 405.910156 392.136719 405.828125 L 392.214844 406.5625 C 391.476562 406.640625 390.734375 406.703125 389.996094 406.742188 Z M 383.316406 406.65625 C 382.582031 406.589844 381.835938 406.511719 381.105469 406.414062 L 381.203125 405.683594 C 381.921875 405.78125 382.65625 405.859375 383.382812 405.921875 Z M 394.421875 406.277344 L 394.3125 405.550781 C 395.03125 405.4375 395.757812 405.308594 396.46875 405.164062 L 396.617188 405.886719 C 395.890625 406.03125 395.152344 406.164062 394.421875 406.277344 Z M 378.90625 406.066406 C 378.175781 405.933594 377.445312 405.78125 376.722656 405.613281 L 376.890625 404.894531 C 377.597656 405.058594 378.320312 405.210938 379.035156 405.339844 Z M 398.789062 405.386719 L 398.605469 404.671875 C 399.3125 404.492188 400.019531 404.292969 400.714844 404.082031 L 400.929688 404.785156 C 400.226562 405 399.503906 405.203125 398.789062 405.386719 Z M 374.566406 405.054688 C 373.855469 404.855469 373.140625 404.632812 372.4375 404.394531 L 372.675781 403.695312 C 373.363281 403.929688 374.070312 404.148438 374.765625 404.347656 Z M 403.042969 404.082031 L 402.796875 403.390625 C 403.476562 403.144531 404.164062 402.878906 404.832031 402.597656 L 405.117188 403.277344 C 404.433594 403.5625 403.734375 403.832031 403.042969 404.082031 Z M 370.339844 403.628906 C 369.652344 403.359375 368.957031 403.070312 368.28125 402.765625 L 368.585938 402.09375 C 369.25 402.394531 369.929688 402.679688 370.609375 402.945312 Z M 407.144531 402.375 L 406.832031 401.710938 C 407.488281 401.398438 408.144531 401.066406 408.785156 400.726562 L 409.132812 401.375 C 408.480469 401.722656 407.8125 402.058594 407.144531 402.375 Z M 366.273438 401.804688 C 365.617188 401.46875 364.953125 401.113281 364.308594 400.742188 L 364.675781 400.105469 C 365.308594 400.464844 365.960938 400.816406 366.605469 401.144531 Z M 411.070312 400.28125 L 410.691406 399.648438 C 411.316406 399.277344 411.941406 398.882812 412.542969 398.480469 L 412.953125 399.09375 C 412.335938 399.503906 411.703125 399.902344 411.070312 400.28125 Z M 362.398438 399.589844 C 361.777344 399.195312 361.152344 398.777344 360.546875 398.351562 L 360.972656 397.75 C 361.566406 398.167969 362.179688 398.582031 362.796875 398.96875 Z M 414.773438 397.820312 L 414.339844 397.226562 C 414.921875 396.796875 415.507812 396.34375 416.070312 395.886719 L 416.535156 396.457031 C 415.960938 396.925781 415.367188 397.382812 414.773438 397.820312 Z M 358.757812 397.023438 C 358.171875 396.566406 357.59375 396.09375 357.035156 395.613281 L 357.515625 395.050781 C 358.066406 395.523438 358.636719 395.992188 359.210938 396.441406 Z M 418.230469 395.015625 L 417.738281 394.464844 C 418.28125 393.980469 418.820312 393.476562 419.339844 392.964844 L 419.855469 393.492188 C 419.328125 394.011719 418.78125 394.523438 418.230469 395.015625 Z M 355.378906 394.121094 C 354.84375 393.613281 354.3125 393.082031 353.800781 392.550781 L 354.332031 392.039062 C 354.832031 392.566406 355.359375 393.085938 355.886719 393.585938 Z M 421.402344 391.894531 L 420.863281 391.394531 C 421.355469 390.859375 421.84375 390.304688 422.3125 389.75 L 422.875 390.222656 C 422.402344 390.785156 421.90625 391.351562 421.402344 391.894531 Z M 352.296875 390.910156 C 351.808594 390.351562 351.332031 389.777344 350.875 389.195312 L 351.453125 388.742188 C 351.902344 389.308594 352.375 389.878906 352.851562 390.425781 Z M 424.265625 388.480469 L 423.679688 388.035156 C 424.121094 387.460938 424.554688 386.863281 424.964844 386.261719 L 425.574219 386.675781 C 425.152344 387.285156 424.714844 387.890625 424.265625 388.480469 Z M 349.535156 387.421875 C 349.105469 386.820312 348.683594 386.203125 348.28125 385.578125 L 348.898438 385.179688 C 349.296875 385.792969 349.710938 386.398438 350.132812 386.992188 Z M 426.792969 384.808594 L 426.167969 384.421875 C 426.550781 383.800781 426.925781 383.164062 427.277344 382.527344 L 427.921875 382.882812 C 427.5625 383.535156 427.183594 384.179688 426.792969 384.808594 Z M 347.121094 383.6875 C 346.746094 383.046875 346.386719 382.390625 346.050781 381.738281 L 346.703125 381.398438 C 347.035156 382.039062 347.390625 382.6875 347.753906 383.316406 Z M 428.957031 380.910156 L 428.296875 380.585938 C 428.617188 379.929688 428.929688 379.261719 429.21875 378.59375 L 429.894531 378.886719 C 429.597656 379.5625 429.285156 380.246094 428.957031 380.910156 Z M 345.074219 379.738281 C 344.765625 379.066406 344.46875 378.382812 344.191406 377.699219 L 344.878906 377.421875 C 345.144531 378.09375 345.4375 378.769531 345.742188 379.429688 Z M 430.734375 376.820312 L 430.042969 376.558594 C 430.304688 375.878906 430.546875 375.179688 430.769531 374.484375 L 431.472656 374.710938 C 431.242188 375.414062 430.996094 376.125 430.734375 376.820312 Z M 343.414062 375.613281 C 343.175781 374.914062 342.945312 374.199219 342.738281 373.492188 L 343.445312 373.28125 C 343.648438 373.980469 343.875 374.683594 344.113281 375.367188 Z M 432.105469 372.578125 L 431.394531 372.386719 C 431.582031 371.683594 431.761719 370.96875 431.917969 370.257812 L 432.636719 370.417969 C 432.476562 371.136719 432.300781 371.863281 432.105469 372.578125 Z M 342.164062 371.339844 C 341.992188 370.621094 341.832031 369.890625 341.691406 369.164062 L 342.417969 369.023438 C 342.550781 369.742188 342.707031 370.460938 342.878906 371.167969 Z M 433.058594 368.230469 L 432.332031 368.109375 C 432.457031 367.390625 432.5625 366.660156 432.648438 365.9375 L 433.378906 366.027344 C 433.292969 366.757812 433.183594 367.503906 433.058594 368.230469 Z M 341.328125 366.96875 C 341.226562 366.234375 341.140625 365.492188 341.070312 364.757812 L 341.804688 364.6875 C 341.871094 365.410156 341.957031 366.144531 342.058594 366.863281 Z M 433.59375 363.808594 L 432.859375 363.757812 C 432.910156 363.03125 432.945312 362.292969 432.964844 361.570312 L 433.703125 361.585938 C 433.679688 362.324219 433.648438 363.074219 433.59375 363.808594 Z M 340.917969 362.535156 C 340.886719 361.832031 340.871094 361.121094 340.871094 360.417969 C 340.871094 359.679688 340.886719 358.929688 340.921875 358.191406 L 341.65625 358.230469 C 341.625 358.953125 341.605469 359.691406 341.605469 360.417969 C 341.605469 361.113281 341.621094 361.8125 341.652344 362.5 Z M 432.96875 359.378906 C 432.949219 358.652344 432.917969 357.914062 432.867188 357.191406 L 433.601562 357.136719 C 433.65625 357.875 433.6875 358.621094 433.703125 359.363281 Z M 341.8125 356.042969 L 341.082031 355.972656 C 341.148438 355.234375 341.238281 354.492188 341.34375 353.761719 L 342.074219 353.863281 C 341.96875 354.585938 341.882812 355.320312 341.8125 356.042969 Z M 432.660156 355.007812 C 432.574219 354.28125 432.472656 353.554688 432.351562 352.835938 L 433.078125 352.714844 C 433.195312 353.441406 433.304688 354.183594 433.390625 354.921875 Z M 342.4375 351.707031 L 341.714844 351.566406 C 341.855469 350.839844 342.011719 350.109375 342.1875 349.390625 L 342.90625 349.566406 C 342.730469 350.273438 342.574219 350.992188 342.4375 351.707031 Z M 431.9375 350.6875 C 431.785156 349.976562 431.609375 349.257812 431.421875 348.554688 L 432.132812 348.367188 C 432.324219 349.082031 432.5 349.808594 432.660156 350.53125 Z M 343.476562 347.449219 L 342.765625 347.242188 C 342.976562 346.535156 343.207031 345.820312 343.453125 345.121094 L 344.148438 345.367188 C 343.90625 346.050781 343.679688 346.753906 343.476562 347.449219 Z M 430.804688 346.457031 C 430.582031 345.761719 430.339844 345.066406 430.085938 344.386719 L 430.773438 344.128906 C 431.035156 344.820312 431.28125 345.527344 431.503906 346.230469 Z M 344.921875 343.308594 L 344.238281 343.03125 C 344.515625 342.347656 344.8125 341.65625 345.125 340.988281 L 345.792969 341.292969 C 345.488281 341.957031 345.195312 342.632812 344.921875 343.308594 Z M 429.265625 342.359375 C 428.976562 341.695312 428.671875 341.023438 428.351562 340.375 L 429.015625 340.050781 C 429.339844 340.714844 429.652344 341.390625 429.945312 342.070312 Z M 346.761719 339.324219 L 346.109375 338.984375 C 346.449219 338.328125 346.8125 337.671875 347.1875 337.035156 L 347.824219 337.40625 C 347.457031 338.035156 347.097656 338.679688 346.761719 339.324219 Z M 427.34375 338.429688 C 426.996094 337.792969 426.625 337.160156 426.242188 336.539062 L 426.871094 336.152344 C 427.257812 336.78125 427.632812 337.429688 427.992188 338.074219 Z M 348.976562 335.539062 L 348.359375 335.136719 C 348.761719 334.515625 349.1875 333.898438 349.621094 333.300781 L 350.21875 333.730469 C 349.792969 334.320312 349.375 334.925781 348.976562 335.539062 Z M 425.050781 334.703125 C 424.640625 334.105469 424.210938 333.503906 423.773438 332.925781 L 424.363281 332.480469 C 424.808594 333.070312 425.242188 333.679688 425.660156 334.285156 Z M 351.542969 331.984375 L 350.96875 331.527344 C 351.425781 330.949219 351.910156 330.375 352.398438 329.820312 L 352.953125 330.304688 C 352.472656 330.847656 351.996094 331.417969 351.542969 331.984375 Z M 422.410156 331.210938 C 421.945312 330.652344 421.460938 330.097656 420.96875 329.558594 L 421.511719 329.0625 C 422.007812 329.609375 422.503906 330.171875 422.976562 330.738281 Z M 354.433594 328.6875 L 353.90625 328.179688 C 354.417969 327.648438 354.953125 327.121094 355.492188 326.617188 L 355.996094 327.152344 C 355.464844 327.648438 354.941406 328.167969 354.433594 328.6875 Z M 419.449219 327.980469 C 418.933594 327.46875 418.398438 326.960938 417.855469 326.472656 L 418.347656 325.925781 C 418.898438 326.421875 419.445312 326.9375 419.964844 327.457031 Z M 357.628906 325.6875 L 357.148438 325.128906 C 357.714844 324.648438 358.292969 324.171875 358.875 323.722656 L 359.328125 324.304688 C 358.753906 324.75 358.179688 325.214844 357.628906 325.6875 Z M 416.191406 325.046875 C 415.628906 324.585938 415.046875 324.136719 414.460938 323.699219 L 414.898438 323.109375 C 415.496094 323.546875 416.085938 324.007812 416.65625 324.476562 Z M 361.089844 323.007812 L 360.664062 322.402344 C 361.269531 321.980469 361.894531 321.566406 362.519531 321.167969 L 362.910156 321.789062 C 362.296875 322.179688 361.6875 322.585938 361.089844 323.007812 Z M 412.664062 322.4375 C 412.058594 322.03125 411.4375 321.636719 410.8125 321.261719 L 411.191406 320.632812 C 411.828125 321.011719 412.460938 321.414062 413.074219 321.828125 Z M 364.792969 320.667969 L 364.425781 320.027344 C 365.070312 319.664062 365.730469 319.308594 366.386719 318.976562 L 366.71875 319.632812 C 366.070312 319.960938 365.421875 320.308594 364.792969 320.667969 Z M 408.90625 320.175781 C 408.265625 319.832031 407.609375 319.5 406.949219 319.183594 L 407.269531 318.519531 C 407.9375 318.839844 408.605469 319.179688 409.253906 319.527344 Z M 368.695312 318.695312 L 368.394531 318.023438 C 369.070312 317.722656 369.757812 317.433594 370.445312 317.167969 L 370.710938 317.855469 C 370.039062 318.117188 369.359375 318.398438 368.695312 318.695312 Z M 404.945312 318.289062 C 404.273438 318.007812 403.582031 317.738281 402.898438 317.488281 L 403.148438 316.792969 C 403.847656 317.046875 404.546875 317.324219 405.230469 317.609375 Z M 372.773438 317.105469 L 372.542969 316.410156 C 373.242188 316.171875 373.960938 315.953125 374.667969 315.753906 L 374.871094 316.460938 C 374.167969 316.660156 373.464844 316.878906 372.773438 317.105469 Z M 400.816406 316.789062 C 400.121094 316.570312 399.410156 316.371094 398.707031 316.191406 L 398.890625 315.476562 C 399.605469 315.660156 400.328125 315.863281 401.035156 316.082031 Z M 376.992188 315.917969 L 376.828125 315.199219 C 377.546875 315.035156 378.28125 314.882812 379.007812 314.753906 L 379.140625 315.480469 C 378.425781 315.609375 377.699219 315.753906 376.992188 315.917969 Z M 396.574219 315.695312 C 395.859375 315.550781 395.132812 315.417969 394.414062 315.304688 L 394.527344 314.578125 C 395.257812 314.691406 395.996094 314.824219 396.71875 314.972656 Z M 381.304688 315.140625 L 381.207031 314.414062 C 381.941406 314.316406 382.6875 314.238281 383.425781 314.175781 L 383.488281 314.910156 C 382.761719 314.96875 382.027344 315.046875 381.304688 315.140625 Z M 392.242188 315.015625 C 391.519531 314.9375 390.785156 314.878906 390.058594 314.835938 L 390.101562 314.101562 C 390.84375 314.144531 391.585938 314.207031 392.320312 314.285156 Z M 385.671875 314.78125 L 385.648438 314.042969 C 386.195312 314.027344 386.753906 314.019531 387.292969 314.019531 C 387.488281 314.019531 387.683594 314.019531 387.875 314.019531 L 387.867188 314.757812 C 387.671875 314.753906 387.476562 314.753906 387.285156 314.753906 C 386.75 314.753906 386.207031 314.761719 385.671875 314.78125 Z M 385.671875 314.78125 " fill-opacity="1" fill-rule="nonzero"/></g><path fill="#596cbc" d="M 416.699219 320.335938 L 420.738281 324.375 L 415.71875 329.394531 L 411.679688 325.355469 Z M 416.699219 320.335938 " fill-opacity="1" fill-rule="nonzero"/><path fill="#596cbc" d="M 420.738281 324.375 L 416.699219 320.339844 L 418.703125 320.207031 L 420.867188 322.371094 Z M 420.738281 324.375 " fill-opacity="1" fill-rule="nonzero"/><path fill="#ffffff" d="M 416.566406 320.46875 L 416.828125 320.210938 L 420.867188 324.25 L 420.605469 324.507812 Z M 416.566406 320.46875 " fill-opacity="1" fill-rule="nonzero"/><path fill="#596cbc" d="M 421.3125 326.179688 L 426.203125 331.070312 L 422.417969 334.855469 L 417.527344 329.964844 Z M 421.3125 326.179688 " fill-opacity="1" fill-rule="nonzero"/><path fill="#596cbc" d="M 414.058594 332.675781 C 414.769531 331.078125 414.472656 329.136719 413.164062 327.824219 C 411.847656 326.511719 409.910156 326.21875 408.308594 326.929688 Z M 414.058594 332.675781 " fill-opacity="1" fill-rule="nonzero"/><path fill="#ffffff" d="M 409.914062 330.785156 L 411.039062 329.65625 L 411.328125 329.945312 L 410.203125 331.070312 Z M 409.914062 330.785156 " fill-opacity="1" fill-rule="nonzero"/><path fill="#ffffff" d="M 412.875 327.539062 L 413.367188 327.046875 L 413.945312 327.617188 L 413.449219 328.113281 Z M 412.875 327.539062 " fill-opacity="1" fill-rule="nonzero"/><path fill="#ffffff" d="M 417.851562 327.261719 L 418.605469 326.507812 L 419.796875 327.699219 L 419.042969 328.453125 Z M 417.851562 327.261719 " fill-opacity="1" fill-rule="nonzero"/><path fill="#ffffff" d="M 419.839844 332.28125 L 423.625 328.496094 L 423.886719 328.753906 L 420.101562 332.539062 Z M 419.839844 332.28125 " fill-opacity="1" fill-rule="nonzero"/><path fill="#ffffff" d="M 418.632812 328.859375 L 418.894531 328.601562 L 423.785156 333.492188 L 423.523438 333.75 Z M 418.632812 328.859375 " fill-opacity="1" fill-rule="nonzero"/><path fill="#ffffff" d="M 419.949219 327.542969 L 420.210938 327.285156 L 425.101562 332.175781 L 424.839844 332.433594 Z M 419.949219 327.542969 " fill-opacity="1" fill-rule="nonzero"/><path fill="#ffffff" d="M 418.601562 331.042969 L 422.386719 327.257812 L 422.648438 327.515625 L 418.863281 331.300781 Z M 418.601562 331.042969 " fill-opacity="1" fill-rule="nonzero"/><path fill="#ffffff" d="M 421.078125 333.519531 L 424.863281 329.734375 L 425.125 329.996094 L 421.339844 333.777344 Z M 421.078125 333.519531 " fill-opacity="1" fill-rule="nonzero"/><path fill="#596cbc" d="M 411.105469 323.546875 L 406.214844 318.660156 L 410 314.875 L 414.890625 319.765625 Z M 411.105469 323.546875 " fill-opacity="1" fill-rule="nonzero"/><path fill="#ffffff" d="M 412.621094 322.03125 L 413.378906 321.277344 L 414.566406 322.46875 L 413.8125 323.222656 Z M 412.621094 322.03125 " fill-opacity="1" fill-rule="nonzero"/><path fill="#ffffff" d="M 408.53125 320.972656 L 412.316406 317.191406 L 412.574219 317.449219 L 408.789062 321.234375 Z M 408.53125 320.972656 " fill-opacity="1" fill-rule="nonzero"/><path fill="#ffffff" d="M 407.324219 317.554688 L 407.582031 317.296875 L 412.472656 322.183594 L 412.210938 322.445312 Z M 407.324219 317.554688 " fill-opacity="1" fill-rule="nonzero"/><path fill="#ffffff" d="M 408.636719 316.238281 L 408.898438 315.976562 L 413.789062 320.867188 L 413.527344 321.128906 Z M 408.636719 316.238281 " fill-opacity="1" fill-rule="nonzero"/><path fill="#ffffff" d="M 409.769531 322.210938 L 413.554688 318.429688 L 413.8125 318.691406 L 410.03125 322.472656 Z M 409.769531 322.210938 " fill-opacity="1" fill-rule="nonzero"/><path fill="#ffffff" d="M 407.289062 319.734375 L 411.074219 315.953125 L 411.335938 316.210938 L 407.550781 319.996094 Z M 407.289062 319.734375 " fill-opacity="1" fill-rule="nonzero"/><path fill="#596cbc" d="M 410.675781 330.929688 C 410.675781 331.007812 410.660156 331.089844 410.628906 331.164062 C 410.597656 331.238281 410.550781 331.304688 410.492188 331.363281 C 410.4375 331.421875 410.371094 331.464844 410.296875 331.496094 C 410.21875 331.527344 410.140625 331.542969 410.058594 331.542969 C 409.976562 331.542969 409.898438 331.527344 409.824219 331.496094 C 409.746094 331.464844 409.679688 331.421875 409.621094 331.363281 C 409.566406 331.304688 409.519531 331.238281 409.488281 331.164062 C 409.457031 331.089844 409.441406 331.007812 409.441406 330.929688 C 409.441406 330.84375 409.457031 330.765625 409.488281 330.691406 C 409.519531 330.617188 409.566406 330.550781 409.621094 330.492188 C 409.679688 330.433594 409.746094 330.390625 409.824219 330.359375 C 409.898438 330.328125 409.976562 330.3125 410.058594 330.3125 C 410.140625 330.3125 410.21875 330.328125 410.296875 330.359375 C 410.371094 330.390625 410.4375 330.433594 410.492188 330.492188 C 410.550781 330.550781 410.597656 330.617188 410.628906 330.691406 C 410.660156 330.765625 410.675781 330.84375 410.675781 330.929688 Z M 410.675781 330.929688 " fill-opacity="1" fill-rule="nonzero"/><path fill="#ffffff" d="M 367.089844 332.207031 C 367.742188 334.476562 366.15625 337.398438 362.75 339.507812 C 359.339844 341.613281 358.855469 348.425781 358.855469 351.835938 C 358.855469 355.242188 367.777344 365.621094 369.402344 362.214844 C 371.023438 358.8125 368.265625 358.484375 367.453125 356.214844 C 366.640625 353.945312 366.316406 350.699219 368.914062 351.511719 C 371.507812 352.324219 371.347656 358.359375 373.457031 354.449219 C 375.566406 350.535156 376.863281 347.160156 376.863281 347.160156 C 376.863281 347.160156 379.945312 345.1875 383.03125 344.210938 C 386.113281 343.238281 385.140625 342.914062 384.492188 340.15625 C 383.839844 337.398438 383.355469 335.128906 381.894531 336.101562 C 380.433594 337.074219 380.109375 339.507812 378 339.019531 C 375.890625 338.535156 375.730469 334.316406 377.839844 334.316406 C 379.949219 334.316406 382.382812 334.96875 382.21875 333.34375 C 382.054688 331.722656 380.761719 331.234375 378.488281 330.265625 C 376.214844 329.289062 375.625 328.113281 375.625 328.113281 Z M 367.089844 332.207031 " fill-opacity="1" fill-rule="nonzero"/><path fill="#ffffff" d="M 388.0625 328.640625 C 384.378906 327.960938 384.21875 330.75 385.167969 332.046875 C 386.113281 333.34375 382.71875 336.261719 386.363281 336.75 C 390.007812 337.234375 392.441406 329.449219 388.0625 328.640625 Z M 388.0625 328.640625 " fill-opacity="1" fill-rule="nonzero"/><path fill="#ffffff" d="M 398.53125 327.789062 C 396.582031 330.332031 398.285156 332.371094 398.609375 333.992188 C 398.929688 335.617188 396.660156 338.371094 399.257812 339.671875 C 401.855469 340.96875 404.449219 339.996094 403.476562 341.777344 C 402.503906 343.5625 402.179688 346.320312 404.449219 345.832031 C 406.722656 345.347656 405.261719 340.804688 407.210938 341.128906 C 409.160156 341.453125 411.101562 342.914062 412.078125 341.941406 C 413.054688 340.96875 413.378906 338.210938 413.378906 338.210938 C 413.378906 338.210938 409.402344 332.550781 398.53125 327.789062 Z M 398.53125 327.789062 " fill-opacity="1" fill-rule="nonzero"/><path fill="#ffffff" d="M 374.105469 361.078125 C 371.722656 361.945312 375.242188 362.539062 373.132812 365.457031 C 371.023438 368.378906 369.105469 371.136719 372.011719 375.191406 C 374.917969 379.246094 377.027344 377.785156 376.867188 380.542969 C 376.703125 383.300781 376.867188 391.085938 379.625 390.4375 C 382.382812 389.789062 383.316406 386.382812 384.636719 386.222656 C 385.953125 386.058594 385.6875 387.195312 387.523438 385.246094 C 389.363281 383.300781 387.894531 381.84375 390.414062 381.679688 C 392.929688 381.515625 393.90625 382.003906 394.230469 379.894531 C 394.554688 377.789062 393.578125 377.5 395.6875 375.777344 C 397.796875 374.054688 396.175781 371.785156 395.6875 370.324219 C 395.203125 368.867188 393.734375 370.324219 390.414062 369.1875 C 387.089844 368.054688 388.105469 367.082031 386.949219 365.457031 C 385.789062 363.835938 385.464844 365.132812 382.871094 364 C 380.273438 362.863281 379.949219 362.378906 378.652344 361.078125 C 377.351562 359.78125 375.890625 360.429688 374.105469 361.078125 Z M 374.105469 361.078125 " fill-opacity="1" fill-rule="nonzero"/></svg>